<svg width="445" height="453" viewBox="0 0 445 453" fill="none" xmlns="http://www.w3.org/2000/svg">
<path d="M222.028 219.058C226.983 219.058 231 223.074 231 228.028C231 232.983 226.983 237 222.028 237C217.074 237 213.058 232.983 213.058 228.028C213.058 223.074 217.074 219.058 222.028 219.058ZM220.533 226.533H216.796V229.524H220.533V233.262H223.524V229.524H227.262V226.533H223.524V222.796H220.533V226.533Z" fill="#EBF6F6" fill-opacity="0.9"/>
<circle cx="223" cy="227" r="115.5" stroke="#EBF6F6" stroke-opacity="0.6"/>
<circle cx="223" cy="227" r="149.5" stroke="#EBF6F6" stroke-opacity="0.4"/>
<path d="M222.5 38.5C324.665 38.5 407.5 122.663 407.5 226.5C407.5 330.337 324.665 414.5 222.5 414.5C120.335 414.5 37.5 330.337 37.5 226.5C37.5 122.663 120.335 38.5 222.5 38.5Z" stroke="#EBF6F6" stroke-opacity="0.3"/>
<path d="M222.5 0.5C345.099 0.5 444.5 101.675 444.5 226.5C444.5 351.325 345.099 452.5 222.5 452.5C99.9011 452.5 0.5 351.325 0.5 226.5C0.5 101.675 99.9011 0.5 222.5 0.5Z" stroke="#EBF6F6" stroke-opacity="0.2"/>
<path d="M215.96 141.2H218.16V142.96H215.96V145.16H214.2V142.96H212V141.2H214.2V139H215.96V141.2Z" fill="#EBF6F6" fill-opacity="0.7"/>
<path d="M137.2 218.2V216H138.96V218.2H141.16V219.96H138.96V222.16H137.2V219.96H135V218.2H137.2Z" fill="#EBF6F6" fill-opacity="0.7"/>
<path d="M307.2 218.2V216H308.96V218.2H311.16V219.96H308.96V222.16H307.2V219.96H305V218.2H307.2Z" fill="#EBF6F6" fill-opacity="0.7"/>
<path d="M223.96 141.2H226.16V142.96H223.96V145.16H222.2V142.96H220V141.2H222.2V139H223.96V141.2Z" fill="#EBF6F6" fill-opacity="0.7"/>
<path d="M137.2 226.2V224H138.96V226.2H141.16V227.96H138.96V230.16H137.2V227.96H135V226.2H137.2Z" fill="#EBF6F6" fill-opacity="0.7"/>
<path d="M307.2 226.2V224H308.96V226.2H311.16V227.96H308.96V230.16H307.2V227.96H305V226.2H307.2Z" fill="#EBF6F6" fill-opacity="0.7"/>
<path d="M231.96 141.2H234.16V142.96H231.96V145.16H230.2V142.96H228V141.2H230.2V139H231.96V141.2Z" fill="#EBF6F6" fill-opacity="0.7"/>
<path d="M137.2 234.2V232H138.96V234.2H141.16V235.96H138.96V238.16H137.2V235.96H135V234.2H137.2Z" fill="#EBF6F6" fill-opacity="0.7"/>
<path d="M307.2 234.2V232H308.96V234.2H311.16V235.96H308.96V238.16H307.2V235.96H305V234.2H307.2Z" fill="#EBF6F6" fill-opacity="0.7"/>
<path d="M219.95 174.046H221.995V175.682H219.95V177.727H218.313V175.682H216.268V174.046H218.313V172H219.95V174.046Z" fill="#EBF6F6" fill-opacity="0.8"/>
<path d="M227.386 174.046H229.431V175.682H227.386V177.727H225.75V175.682H223.705V174.046H225.75V172H227.386V174.046Z" fill="#EBF6F6" fill-opacity="0.8"/>
<path d="M219.95 278.159H221.995V279.795H219.95V281.84H218.313V279.795H216.268V278.159H218.313V276.113H219.95V278.159Z" fill="#EBF6F6" fill-opacity="0.8"/>
<path d="M227.386 278.159H229.431V279.795H227.386V281.84H225.75V279.795H223.705V278.159H225.75V276.113H227.386V278.159Z" fill="#EBF6F6" fill-opacity="0.8"/>
<path d="M169.045 229.82V227.775H170.682V229.82H172.727V231.457H170.682V233.501H169.045V231.457H167V229.82H169.045Z" fill="#EBF6F6" fill-opacity="0.8"/>
<path d="M169.045 222.045V220H170.682V222.045H172.727V223.682H170.682V225.726H169.045V223.682H167V222.045H169.045Z" fill="#EBF6F6" fill-opacity="0.8"/>
<path d="M222.045 256.045V254H223.682V256.045H225.727V257.682H223.682V259.726H222.045V257.682H220V256.045H222.045Z" fill="#EBF6F6" fill-opacity="0.9"/>
<path d="M222.046 197.045V195H223.682V197.045H225.727V198.682H223.682V200.726H222.046V198.682H220V197.045H222.046Z" fill="#EBF6F6" fill-opacity="0.9"/>
<path d="M273.844 236.969C274.168 237.032 274.503 237.066 274.845 237.069C270.723 258.155 254.095 274.764 232.999 278.858C232.997 278.517 232.963 278.183 232.901 277.858C253.524 273.816 269.775 257.582 273.844 236.969ZM171.846 236.969C175.906 257.536 192.096 273.744 212.653 277.831C212.59 278.155 212.555 278.49 212.551 278.832C191.522 274.691 174.959 258.108 170.846 237.069C171.187 237.066 171.522 237.032 171.846 236.969ZM232.999 174.832C254.095 178.926 270.72 195.535 274.843 216.621C274.502 216.624 274.168 216.658 273.844 216.72C269.775 196.108 253.524 179.874 232.901 175.832C232.963 175.507 232.997 175.173 232.999 174.832ZM212.551 174.859C212.555 175.201 212.59 175.535 212.653 175.859C192.096 179.946 175.906 196.154 171.846 216.72C171.522 216.658 171.189 216.624 170.848 216.621C174.961 195.582 191.522 179 212.551 174.859Z" fill="#EBF6F6" fill-opacity="0.8"/>
<path d="M273.159 229.82V227.775H274.795V229.82H276.84V231.457H274.795V233.501H273.159V231.457H271.113V229.82H273.159Z" fill="#EBF6F6" fill-opacity="0.8"/>
<path d="M273.159 222.383V220.338H274.795V222.383H276.84V224.02H274.795V226.065H273.159V224.02H271.113V222.383H273.159Z" fill="#EBF6F6" fill-opacity="0.8"/>
<path d="M139.294 241.857C145.47 276.893 173.106 304.527 208.142 310.704C208.071 311.026 208.024 311.357 208.007 311.695C172.527 305.457 144.54 277.472 138.303 241.992C138.641 241.975 138.972 241.928 139.294 241.857ZM306.705 241.857C307.027 241.928 307.358 241.975 307.696 241.992C301.459 277.473 273.472 305.458 237.992 311.695C237.975 311.357 237.928 311.026 237.857 310.704C272.893 304.528 300.529 276.893 306.705 241.857ZM208.007 142.303C208.024 142.641 208.071 142.972 208.142 143.294C173.106 149.471 145.472 177.106 139.295 212.142C138.973 212.071 138.642 212.024 138.304 212.007C144.542 176.527 172.527 148.54 208.007 142.303ZM237.992 142.303C273.472 148.54 301.457 176.527 307.695 212.007C307.357 212.024 307.026 212.071 306.704 212.142C300.527 177.106 272.893 149.47 237.857 143.294C237.928 142.972 237.975 142.641 237.992 142.303Z" fill="#EBF6F6" fill-opacity="0.7"/>
<path d="M215.96 311.2H218.16V312.96H215.96V315.16H214.2V312.96H212V311.2H214.2V309H215.96V311.2Z" fill="#EBF6F6" fill-opacity="0.7"/>
<path d="M223.96 311.2H226.16V312.96H223.96V315.16H222.2V312.96H220V311.2H222.2V309H223.96V311.2Z" fill="#EBF6F6" fill-opacity="0.7"/>
<path d="M231.96 311.2H234.16V312.96H231.96V315.16H230.2V312.96H228V311.2H230.2V309H231.96V311.2Z" fill="#EBF6F6" fill-opacity="0.7"/>
<path d="M216.447 198.274C216.58 198.599 216.741 198.909 216.927 199.202C203.329 201.601 193 213.475 193 227.761C193 241.72 202.863 253.374 216 256.138V257C216 257.054 216.002 257.107 216.004 257.16C202.309 254.382 192 242.276 192 227.761C192 213.09 202.532 200.879 216.447 198.274ZM229.37 198.674C242.375 201.959 252 213.735 252 227.761C252 241.558 242.684 253.178 230 256.68V255.642C242.125 252.169 251 241.002 251 227.761C251 214.094 241.546 202.637 228.821 199.569C229.029 199.289 229.213 198.989 229.37 198.674Z" fill="#EBF6F6" fill-opacity="0.9"/>
</svg>
